# xmcd
#
# Track frame offsets: 
#        150
#        2229
#        16485
#        32658
#        50991
#        64302
#        65571
#        80313
#        83769
#        105477
#        122217
#        141414
#        148542
#        161961
#        164121
#        179457
#        180699
#        196116
#        198006
#        210615
#        211641
#        246498
#        250737
#        264534
#        270123
#
# Disc length: 3769 seconds
#
# Revision: 0
# Processed by: cddbd v1.5.2PL0 Copyright (c) Steve Scherf et al.
# Submitted via: ExactAudioCopy v0.95b3
#
DISCID=6f0eb719
DTITLE=The Beatles  - The Days In Their Life - Vol.13  FLAC
DYEAR=1900
DGENRE=
TTITLE0=Narrative
TTITLE1=Get Back
TTITLE2=Don't Let Me Down
TTITLE3=Narrative
TTITLE4=The Ballad Of John And Yoko
TTITLE5=Narrative
TTITLE6=Old Brown Shoe
TTITLE7=Narrative
TTITLE8=Give Peace A Chance (Plastic Ono Band)
TTITLE9=Narrative
TTITLE10=Come Together
TTITLE11=Narrative
TTITLE12=Something
TTITLE13=Narrative
TTITLE14=Maxwell's Silver Hammer
TTITLE15=Narrative
TTITLE16=Darling
TTITLE17=Narrative
TTITLE18=Octopus's Garden
TTITLE19=Narrative
TTITLE20=I Want You (She's So Heavy)
TTITLE21=Narrative
TTITLE22=Here Comes The Sun
TTITLE23=Narrative
TTITLE24=Because
EXTD=
EXTT0=
EXTT1=
EXTT2=
EXTT3=
EXTT4=
EXTT5=
EXTT6=
EXTT7=
EXTT8=
EXTT9=
EXTT10=
EXTT11=
EXTT12=
EXTT13=
EXTT14=
EXTT15=
EXTT16=
EXTT17=
EXTT18=
EXTT19=
EXTT20=
EXTT21=
EXTT22=
EXTT23=
EXTT24=
PLAYORDER=
